/* XPM */
static char * deploygui_xpm[] = {
"32 32 195 2",
"  	c None",
". 	c #FF6A00",
"+ 	c #FF6800",
"@ 	c #EC5F00",
"# 	c #B74900",
"$ 	c #5E2600",
"% 	c #120700",
"& 	c #D25400",
"* 	c #C75000",
"= 	c #FE6500",
"- 	c #FF6600",
"; 	c #E55C00",
"> 	c #833300",
", 	c #F26000",
"' 	c #C34E00",
") 	c #552300",
"! 	c #FF6700",
"~ 	c #C34B00",
"{ 	c #5F2A00",
"] 	c #6C2D00",
"^ 	c #FF6900",
"/ 	c #EB5E00",
"( 	c #491E00",
"_ 	c #A34100",
": 	c #DE5800",
"< 	c #C44E00",
"[ 	c #9F3E00",
"} 	c #FD6500",
"| 	c #DC5800",
"1 	c #9C3E00",
"2 	c #CB5100",
"3 	c #F76300",
"4 	c #F96300",
"5 	c #3B4800",
"6 	c #000000",
"7 	c #883700",
"8 	c #D95600",
"9 	c #EE5F00",
"0 	c #E25A00",
"a 	c #1D0400",
"b 	c #607800",
"c 	c #728E00",
"d 	c #8AAC00",
"e 	c #698300",
"f 	c #6E2E00",
"g 	c #E05900",
"h 	c #C44F00",
"i 	c #D05300",
"j 	c #485700",
"k 	c #789600",
"l 	c #8AAD00",
"m 	c #88AA00",
"n 	c #87A900",
"o 	c #84A500",
"p 	c #384200",
"q 	c #85A600",
"r 	c #576C00",
"s 	c #86A800",
"t 	c #080A00",
"u 	c #6E8A00",
"v 	c #3F4D00",
"w 	c #7C9C00",
"x 	c #7B9600",
"y 	c #7A9500",
"z 	c #3C4900",
"A 	c #84A600",
"B 	c #718E00",
"C 	c #2D2E00",
"D 	c #759500",
"E 	c #89AC00",
"F 	c #D6B500",
"G 	c #FFCB00",
"H 	c #729200",
"I 	c #597100",
"J 	c #5B6E00",
"K 	c #F3C100",
"L 	c #829400",
"M 	c #CDB100",
"N 	c #798200",
"O 	c #668100",
"P 	c #655400",
"Q 	c #EBBB00",
"R 	c #FFCC00",
"S 	c #FECB00",
"T 	c #BEA100",
"U 	c #7DA200",
"V 	c #6D8900",
"W 	c #00171B",
"X 	c #009C7C",
"Y 	c #000F0C",
"Z 	c #EABB00",
"` 	c #B08C00",
" .	c #776000",
"..	c #E4B600",
"+.	c #FFCD00",
"@.	c #FFCE00",
"#.	c #E7BD00",
"$.	c #819300",
"%.	c #729000",
"&.	c #00745B",
"*.	c #009576",
"=.	c #007861",
"-.	c #007B61",
";.	c #000D0A",
">.	c #B79000",
",.	c #DDB000",
"'.	c #D1A600",
").	c #F2C200",
"!.	c #948600",
"~.	c #00A483",
"{.	c #00AC89",
"].	c #008B70",
"^.	c #ECBD00",
"/.	c #CBA200",
"(.	c #00A685",
"_.	c #00A988",
":.	c #00AA88",
"<.	c #007E67",
"[.	c #C19A00",
"}.	c #7D6400",
"|.	c #00A785",
"1.	c #00A987",
"2.	c #00AB89",
"3.	c #00A181",
"4.	c #543F31",
"5.	c #CD3900",
"6.	c #C57600",
"7.	c #FFD600",
"8.	c #FFD300",
"9.	c #FCCA00",
"0.	c #00A684",
"a.	c #0A886C",
"b.	c #D50000",
"c.	c #D60000",
"d.	c #B40000",
"e.	c #B63900",
"f.	c #E7B300",
"g.	c #EDC000",
"h.	c #FFCF00",
"i.	c #CBA100",
"j.	c #00A080",
"k.	c #C20806",
"l.	c #20624F",
"m.	c #B50604",
"n.	c #D40000",
"o.	c #CF0300",
"p.	c #C20700",
"q.	c #BE6100",
"r.	c #CB0000",
"s.	c #BD7100",
"t.	c #F4C300",
"u.	c #1A1E00",
"v.	c #008A6E",
"w.	c #00AD8A",
"x.	c #05A080",
"y.	c #00B591",
"z.	c #8A1914",
"A.	c #D20000",
"B.	c #E5A700",
"C.	c #FBC900",
"D.	c #DEAB00",
"E.	c #D30000",
"F.	c #B80C00",
"G.	c #A27A00",
"H.	c #005B47",
"I.	c #00A281",
"J.	c #981A15",
"K.	c #00AE8B",
"L.	c #5B4437",
"M.	c #DB0000",
"N.	c #BF0F00",
"O.	c #C67600",
"P.	c #BF5000",
"Q.	c #AC0000",
"R.	c #009E7E",
"S.	c #247B62",
"T.	c #D70000",
"U.	c #861B16",
"V.	c #AA0000",
"W.	c #653E31",
"X.	c #D00000",
"Y.	c #9B0000",
"Z.	c #204335",
"`.	c #DD0000",
" +	c #C90000",
".+	c #D80000",
"++	c #D90000",
"@+	c #C60000",
"#+	c #AE0000",
"$+	c #700000",
"%+	c #430000",
"&+	c #B10000",
"*+	c #B60000",
"=+	c #650000",
"-+	c #A40000",
"                                                                ",
"                          . + @ # $                             ",
"                        % & * = - = ; >                         ",
"                        , ' ) + - = - ! ~ {                     ",
"                      ] ^ - ^ ! - - = - + /                     ",
"                      ( . - ; _ : - - < [ }                     ",
"                        | ! - 1 2 - 3     4             5 6     ",
"                              7 8 ^ ! 9 0 a         b c d e     ",
"                                  f g h i       j k l m n o     ",
"  6                 6               6 6 6   p o m m m m m q     ",
"  6   6 6 6   6 6 6 6 6 6 6 6 6     6 6 6     r s m m m m n t   ",
"  6   6   6   6     6 6       6 6   6 6 6   u v w m m x y d z   ",
"  6   6   6   6 6 6 6     6 6 6 6   6 6 6   A B C D E F G H I   ",
"  6   6   6       6 6 6   6   6 6   6 6 6   J     K L M N l O   ",
"  6   6   6   6 6     6 6   6 6 6   6 6 6     P Q R S T U m V   ",
"                            W     X Y   Z `  ...+.R R @.#.$.%.  ",
"                            &.*.=.-.;.>.,.'.).R R R R R S @.!.  ",
"                            ~.{.].        ^.R R R R R R R R /.  ",
"                            (._.:.<.    [.R S R R R R R R R }.  ",
"                            |.:.1.2.3.4.5.6.7.8.S R R R S 9.    ",
"                            0.:.:.:.a.b.c.c.d.e.f.g.h.S @.i.    ",
"                            j.:.:.(.k.l.m.n.o.p.q.r.s.S t.u.    ",
"                            v.2.1.w.x.y.z.A.B.C.D.n.E.F.G.      ",
"                            H.w.I.J.K.L.M.n.N.O.P.b.b.Q.        ",
"                              R.S.T.U.M.E.E.n.c.c.b.V.          ",
"                              *.W.n.n.E.E.n.n.n.X.Y.            ",
"                              Z.`. +.+++++@+#+$+                ",
"                            %+&+                                ",
"                            *+=+                                ",
"                            -+                                  ",
"                                                                ",
"                                                                "};
