/* XPM */
static char * openalea_icon_xpm[] = {
"32 32 150 2",
"  	c None",
". 	c #DE5A00",
"+ 	c #FF6700",
"@ 	c #FF6600",
"# 	c #E45B00",
"$ 	c #C64F00",
"% 	c #E45C00",
"& 	c #FD6500",
"* 	c #DC5800",
"= 	c #C04C00",
"- 	c #FE6500",
"; 	c #E95D00",
"> 	c #F56200",
", 	c #D85600",
"' 	c #F76200",
") 	c #FF6800",
"! 	c #C74F00",
"~ 	c #CC5300",
"{ 	c #F86300",
"] 	c #F96300",
"^ 	c #EC5E00",
"/ 	c #EA5D00",
"( 	c #CB5100",
"_ 	c #D15200",
": 	c #E15A00",
"< 	c #F26000",
"[ 	c #7C9C00",
"} 	c #84A500",
"| 	c #769400",
"1 	c #8AAD00",
"2 	c #88AA00",
"3 	c #87A900",
"4 	c #89AB00",
"5 	c #678100",
"6 	c #88AB00",
"7 	c #749100",
"8 	c #6C8700",
"9 	c #7F9F00",
"0 	c #7A9900",
"a 	c #6B8600",
"b 	c #83A400",
"c 	c #86A800",
"d 	c #8A9000",
"e 	c #80A000",
"f 	c #809F00",
"g 	c #82A600",
"h 	c #839600",
"i 	c #FFD200",
"j 	c #AD9A00",
"k 	c #81A300",
"l 	c #DEB100",
"m 	c #D2AF00",
"n 	c #828F00",
"o 	c #908900",
"p 	c #80A400",
"q 	c #CFA500",
"r 	c #FFCC00",
"s 	c #FDCA00",
"t 	c #7D8900",
"u 	c #87AB00",
"v 	c #81A200",
"w 	c #00987A",
"x 	c #009677",
"y 	c #CFA600",
"z 	c #D9AD00",
"A 	c #DAAE00",
"B 	c #FECB00",
"C 	c #FFCF00",
"D 	c #C8AE00",
"E 	c #759600",
"F 	c #00A887",
"G 	c #009275",
"H 	c #008A6D",
"I 	c #EEBF00",
"J 	c #DCB000",
"K 	c #FFCD00",
"L 	c #F3C300",
"M 	c #00AA88",
"N 	c #00A786",
"O 	c #C39E00",
"P 	c #FFCE00",
"Q 	c #F0C000",
"R 	c #009174",
"S 	c #00A987",
"T 	c #00A785",
"U 	c #FDCB00",
"V 	c #EDBD00",
"W 	c #009274",
"X 	c #039274",
"Y 	c #BF0E01",
"Z 	c #C74200",
"` 	c #C98900",
" .	c #FFDA00",
"..	c #FFD000",
"+.	c #D7AC00",
"@.	c #00A886",
"#.	c #A70A08",
"$.	c #D90000",
"%.	c #D50000",
"&.	c #D60000",
"*.	c #B30000",
"=.	c #BA5C00",
"-.	c #E7AF00",
";.	c #F8CA00",
">.	c #00AB88",
",.	c #00AB89",
"'.	c #44614D",
").	c #583C30",
"!.	c #1A5E4C",
"~.	c #DA0000",
"{.	c #D20000",
"].	c #BE1200",
"^.	c #D79E00",
"/.	c #C50000",
"(.	c #B60000",
"_.	c #E5AF00",
":.	c #00AC8A",
"<.	c #196954",
"[.	c #C21600",
"}.	c #FFD400",
"|.	c #C54D00",
"1.	c #D00000",
"2.	c #9C3600",
"3.	c #009779",
"4.	c #6B4033",
"5.	c #475745",
"6.	c #08886D",
"7.	c #D30000",
"8.	c #D10000",
"9.	c #C23200",
"0.	c #C66D00",
"a.	c #CA0600",
"b.	c #D40000",
"c.	c #CD0000",
"d.	c #00AF8C",
"e.	c #AA110D",
"f.	c #C50100",
"g.	c #DE0000",
"h.	c #C70000",
"i.	c #00896F",
"j.	c #DC0000",
"k.	c #BA0000",
"l.	c #C70504",
"m.	c #B40000",
"n.	c #AF0000",
"o.	c #B20000",
"p.	c #B70000",
"q.	c #AD0000",
"r.	c #A60000",
"s.	c #A50000",
"                                                                ",
"              . + @ # $                                         ",
"                  % @ @ & *                                     ",
"            = -   ; @ @ - @ >                                   ",
"            , @ + @ @ @ - @ ' ) !                               ",
"            ~ @ {     ] @ ^   / ^                               ",
"              > + ! ( > @     _                                 ",
"                      : @ + <             [ } }                 ",
"                            /         | 1 2 3 4                 ",
"                                  5 6 3 2 2 2 4 7               ",
"                                    8 2 2 2 2 2 9               ",
"                                  0 a b 3 c d e f               ",
"                                  }     g h i j k               ",
"                                      l m n o p e               ",
"                                    q r r s t u v               ",
"                      w x   y z   A r B r r C D E               ",
"                  F G H     I J l K B r r r r K L               ",
"                  M N         O P r r r r r r r Q               ",
"                R S M T       U B r r r r r r B V               ",
"                W M M M M X Y Z `  ...B r r r K +.              ",
"                  M M S @.#.$.%.&.*.=.-.;.r B Q                 ",
"                  >.M ,.'.).!.~.{.].^./.(._.K                   ",
"                  ,.S :.S M <.~.[.}.r |.&.1.2.                  ",
"                  3.M 4.5.6.1.7.8.9.0.a.b.c.                    ",
"                    d.e.f.g.b.b.7.%.&.%.h.                      ",
"                    i.j.b.b.b.b.b.b.8.k.                        ",
"                    l.m.n.o.p.o.q.                              ",
"                  r.                                            ",
"                  k.                                            ",
"                s.                                              ",
"                                                                ",
"                                                                "};
